<?xml version="1.0" encoding="iso-8859-1"?>
<!-- Uploaded to: SVG Repo, www.svgrepo.com, Generator: SVG Repo Mixer Tools -->
<svg height="800px" width="800px" version="1.1" id="Layer_1" xmlns="http://www.w3.org/2000/svg" xmlns:xlink="http://www.w3.org/1999/xlink" 
	 viewBox="0 0 512.001 512.001" xml:space="preserve">
<path style="fill:#0795AB;" d="M171.748,481.049H13.701c-4.494,0-8.702-2.203-11.261-5.898c-2.559-3.693-3.146-8.407-1.567-12.615
	l26.666-71.104c-10.861-22.006-16.576-46.475-16.576-71.168c0-36.64,12.655-72.489,35.632-100.943
	c22.633-28.028,54.339-47.851,89.273-55.816c7.381-1.677,14.722,2.936,16.405,10.313c1.683,7.377-2.935,14.722-10.313,16.405
	c-60.995,13.907-103.594,67.382-103.594,130.04c0,22.266,5.593,44.3,16.175,63.717c1.903,3.494,2.195,7.643,0.797,11.368
	l-21.863,58.297h138.274c47.548,0,91.859-25.62,115.639-66.866c3.779-6.555,12.155-8.806,18.713-5.026
	c6.555,3.78,8.806,12.157,5.026,18.713C282.468,450.172,229.061,481.049,171.748,481.049z"/>
<path style="fill:#00FDA2;" d="M498.298,338.819l-28.807-76.81c11.378-20.88,17.845-44.822,17.845-70.273
	c0-81.232-65.852-147.084-147.084-147.084S193.17,110.503,193.17,191.735s65.852,147.084,147.084,147.084
	C342.709,338.819,498.298,338.819,498.298,338.819z"/>
<g>
	<path style="fill:#0795AB;" d="M498.298,352.52H340.252c-88.658,0-160.785-72.129-160.785-160.785S251.596,30.951,340.254,30.951
		c88.657,0,160.785,72.129,160.785,160.785c0,24.694-5.715,49.164-16.579,71.168l26.668,71.104
		c1.577,4.208,0.993,8.922-1.567,12.615C507.002,350.317,502.794,352.52,498.298,352.52z M340.254,58.354
		c-73.548,0-133.382,59.836-133.382,133.382s59.834,133.382,133.382,133.382h138.274l-21.865-58.297
		c-1.398-3.725-1.106-7.874,0.797-11.368c10.583-19.418,16.176-41.451,16.176-63.717C473.634,118.19,413.799,58.354,340.254,58.354z
		"/>
	<path style="fill:#0795AB;" d="M327.684,213.956c0,6.786,5.474,11.002,14.286,11.002c5.439,0,14.069-2.987,14.069-11.002
		c0-12.993,0.778-29.114,1.53-44.702c0.755-15.622,1.535-31.776,1.535-44.835c0-8.669-7.047-14.724-17.134-14.724
		c-10.377,0-17.35,5.916-17.35,14.724c0,13.059,0.78,29.213,1.533,44.835C326.906,184.842,327.684,200.963,327.684,213.956z"/>
	<path style="fill:#0795AB;" d="M342.191,237.324c-10.221,0-18.228,8.006-18.228,18.227c0,10.05,8.177,18.227,18.228,18.227
		c9.592,0,18.008-8.517,18.008-18.227C360.197,245.671,351.952,237.324,342.191,237.324z"/>
</g>
</svg>