<?xml version="1.0" encoding="iso-8859-1"?>
<!-- Uploaded to: SVG Repo, www.svgrepo.com, Generator: SVG Repo Mixer Tools -->
<svg height="800px" width="800px" version="1.1" id="Layer_1" xmlns="http://www.w3.org/2000/svg" xmlns:xlink="http://www.w3.org/1999/xlink" 
	 viewBox="0 0 512 512" xml:space="preserve">
<path style="fill:#00FDA2;" d="M219.875,361.841l0.276-15.648l19.637-17.113c2.015-1.755,2.708-4.592,1.726-7.083l-9.89-25.122
	c-0.978-2.487-3.41-4.091-6.092-4.001l-26.034,0.871l-10.867-11.263l1.789-25.982c0.184-2.668-1.333-5.166-3.789-6.235
	l-24.758-10.768c-2.452-1.069-5.311-0.474-7.14,1.479l-17.791,19.023l-15.647-0.276l-17.113-19.638
	c-1.755-2.015-4.592-2.707-7.084-1.73l-25.122,9.89c-2.487,0.982-4.091,3.424-4.002,6.096l0.871,26.03L57.585,291.24l-25.983-1.789
	c-2.66-0.191-5.166,1.333-6.234,3.785l-10.771,24.758c-1.069,2.455-0.477,5.315,1.479,7.14l19.023,17.795l-0.276,15.648
	l-19.638,17.108c-2.014,1.76-2.712,4.597-1.73,7.083l9.89,25.126c0.98,2.487,3.427,4.099,6.096,4.004l26.03-0.871l10.871,11.258
	l-1.789,25.985c-0.182,2.669,1.333,5.166,3.785,6.23l24.758,10.775c2.455,1.068,5.315,0.471,7.14-1.48l17.795-19.021l15.647,0.277
	l17.109,19.637c1.202,1.38,2.906,2.139,4.658,2.17c0.814,0.014,1.637-0.128,2.424-0.439l25.126-9.89
	c2.488-0.982,4.092-3.423,4.002-6.097l-0.871-26.028l11.258-10.871l25.987,1.789c2.66,0.182,5.165-1.333,6.228-3.785l10.775-24.762
	c1.065-2.452,0.473-5.309-1.48-7.14L219.875,361.841z M130.086,392.344C105.921,393.87,86,373.946,87.528,349.782
	c1.26-19.929,17.432-36.098,37.359-37.357c24.165-1.526,44.086,18.398,42.558,42.562
	C166.186,374.916,150.015,391.086,130.086,392.344z"/>
<g>
	<path style="fill:#0795AB;" d="M155.565,479.874c-0.082,0-0.281-0.003-0.362-0.004c-5.449-0.094-10.642-2.514-14.233-6.636
		l-13.307-15.273l-4.076-0.072l-13.844,14.797c-3.64,3.893-8.791,6.128-14.129,6.128c-2.666,0-5.26-0.539-7.707-1.601
		l-24.764-10.777c-7.481-3.248-12.137-10.91-11.578-19.059l1.39-20.214l-2.832-2.933l-20.248,0.678
		c-0.2,0.008-0.43,0.012-0.66,0.012c-7.991,0-15.05-4.809-17.984-12.253L1.34,387.534c-2.988-7.572-0.871-16.279,5.275-21.653
		l15.294-13.323l0.072-4.076L7.186,334.639c-5.964-5.565-7.786-14.349-4.522-21.845l10.768-24.752
		c3.259-7.485,10.883-12.178,19.102-11.578l20.174,1.389l2.936-2.834l-0.678-20.246c-0.272-8.155,4.644-15.647,12.234-18.641
		l25.133-9.893c2.277-0.894,4.656-1.344,7.083-1.344c5.597,0,10.914,2.419,14.588,6.64l13.308,15.272l4.076,0.072l13.838-14.797
		c3.657-3.899,8.804-6.13,14.131-6.13c2.673,0,5.272,0.542,7.723,1.611l24.746,10.764c7.49,3.264,12.141,10.925,11.582,19.066
		l-1.39,20.213l2.832,2.935l20.249-0.677c0.215-0.008,0.432-0.012,0.65-0.012c8.003,0,15.066,4.813,17.994,12.263l9.887,25.114
		c2.993,7.605,0.864,16.313-5.295,21.673l-15.269,13.305l-0.072,4.078l14.795,13.837c5.959,5.592,7.774,14.359,4.529,21.835
		l-10.779,24.772c-3.065,7.058-10.028,11.625-17.736,11.625l0,0c-0.437,0-0.879-0.016-1.319-0.046l-20.218-1.39l-2.933,2.832
		l0.677,20.246c0.272,8.158-4.645,15.651-12.237,18.644l-25.135,9.893C160.393,479.419,158.005,479.874,155.565,479.874z
		 M118.033,431.751c0.077,0,0.152,0.001,0.23,0.003l15.647,0.276c3.683,0.065,7.166,1.687,9.586,4.464l14.005,16.076l16.329-6.428
		l-0.712-21.306c-0.124-3.681,1.319-7.241,3.967-9.8l11.257-10.873c2.651-2.56,6.26-3.88,9.939-3.623l21.27,1.465l7.003-16.093
		l-15.571-14.562c-2.69-2.517-4.188-6.054-4.123-9.739l0.276-15.647c0.065-3.683,1.686-7.167,4.464-9.586l16.074-14.006
		l-6.429-16.326l-21.308,0.712c-3.681,0.124-7.245-1.321-9.804-3.972l-10.867-11.263c-2.557-2.651-3.873-6.26-3.619-9.934
		l1.463-21.268l-16.091-6.999l-14.564,15.571c-2.517,2.69-5.993,4.169-9.739,4.123l-15.647-0.276
		c-3.682-0.065-7.166-1.686-9.585-4.464l-14.01-16.076l-16.325,6.426l0.712,21.309c0.124,3.682-1.319,7.243-3.97,9.802
		l-11.262,10.871c-2.653,2.557-6.282,3.869-9.936,3.621l-21.269-1.465l-6.999,16.088l15.571,14.566
		c2.69,2.517,4.188,6.054,4.123,9.737l-0.276,15.648c-0.065,3.683-1.687,7.167-4.466,9.586l-16.075,14.005l6.428,16.33l21.306-0.712
		c3.658-0.135,7.241,1.319,9.8,3.967l10.873,11.257c2.56,2.651,3.877,6.264,3.623,9.939l-1.465,21.271l16.088,7.002l14.567-15.573
		C110.989,433.242,114.433,431.751,118.033,431.751z M127.488,405.446c-14.596,0-28.699-6.105-38.692-16.751
		C78.661,377.9,73.596,363.788,74.534,348.96c1.681-26.558,22.975-47.852,49.535-49.53c15.765-0.991,31.34,5.171,42.11,16.641
		c10.134,10.796,15.2,24.907,14.263,39.737c-1.681,26.558-22.975,47.852-49.535,49.53
		C129.771,405.409,128.62,405.446,127.488,405.446z M127.488,325.361c-0.588,0-1.182,0.02-1.778,0.057
		c-13.282,0.84-24.346,11.902-25.187,25.186c-0.479,7.573,2.097,14.773,7.258,20.269c5.568,5.932,13.249,8.995,21.486,8.477
		c13.282-0.84,24.346-11.902,25.187-25.186c0.479-7.573-2.099-14.773-7.26-20.27C142.029,328.392,135.03,325.361,127.488,325.361z"
		/>
	<path style="fill:#0795AB;" d="M397.67,326.644c-0.12,0-0.241-0.001-0.359-0.004c-5.779-0.103-11.263-2.659-15.054-7.011
		l-16.263-18.666l-6.779-0.12l-16.916,18.083c-5.885,6.295-15.157,8.22-23.068,4.783l-29.044-12.641
		c-7.9-3.429-12.822-11.523-12.23-20.135l1.702-24.703l-4.71-4.877l-24.745,0.828c-8.598,0.301-16.526-4.89-19.696-12.933
		l-11.6-29.473c-3.158-8.003-0.918-17.203,5.579-22.878l18.682-16.274l0.12-6.779l-18.083-16.915
		c-6.3-5.877-8.226-15.155-4.781-23.074l12.631-29.035c3.451-7.935,11.555-12.849,20.18-12.232l24.66,1.699l4.88-4.71l-0.828-24.743
		c-0.288-8.616,4.908-16.529,12.926-19.694l29.472-11.6c8.045-3.159,17.235-0.906,22.895,5.592l16.265,18.667l6.778,0.12
		l16.911-18.083c5.907-6.307,15.179-8.223,23.086-4.774l29.023,12.624c7.912,3.445,12.829,11.539,12.237,20.144l-1.7,24.7
		l4.708,4.88l24.746-0.828c8.638-0.302,16.54,4.91,19.696,12.939l11.595,29.458c3.162,8.028,0.915,17.227-5.589,22.893
		l-18.665,16.265l-0.12,6.779l18.08,16.908c6.299,5.91,8.215,15.175,4.785,23.072l-12.638,29.046
		c-3.433,7.903-11.527,12.823-20.133,12.233l-30.48-2.097c-7.174-0.495-12.588-6.709-12.095-13.883
		c0.493-7.175,6.715-12.598,13.883-12.095l26.527,1.825l9.478-21.783l-19.418-18.159c-2.691-2.517-4.191-6.055-4.125-9.739
		l0.324-18.351c0.065-3.682,1.686-7.166,4.464-9.585l20.045-17.468l-8.701-22.102l-26.575,0.889
		c-3.669,0.112-7.245-1.32-9.804-3.972l-12.743-13.208c-2.557-2.649-3.873-6.26-3.619-9.934l1.825-26.526l-21.781-9.474
		l-18.162,19.42c-2.517,2.689-6.006,4.194-9.739,4.123l-18.35-0.324c-3.683-0.065-7.166-1.687-9.585-4.464l-17.471-20.049l-22.1,8.7
		l0.889,26.575c0.124,3.682-1.319,7.243-3.97,9.801l-13.207,12.749c-2.651,2.561-6.283,3.869-9.936,3.622l-26.527-1.827
		l-9.474,21.779l19.421,18.167c2.69,2.517,4.19,6.054,4.123,9.737l-0.324,18.351c-0.065,3.683-1.687,7.167-4.466,9.586
		l-20.047,17.464l8.701,22.106l26.573-0.889c3.671-0.15,7.243,1.318,9.8,3.967l12.75,13.202c2.56,2.651,3.877,6.264,3.623,9.939
		l-1.825,26.527l21.776,9.478l18.169-19.421c2.465-2.633,5.908-4.125,9.508-4.125c0.077,0,0.152,0.001,0.23,0.003l18.35,0.324
		c3.683,0.065,7.166,1.687,9.586,4.464l17.467,20.049l25.784-10.149c6.7-2.633,14.251,0.655,16.884,7.346
		c2.634,6.692-0.655,14.25-7.346,16.884l-29.466,11.598C402.766,326.165,400.248,326.644,397.67,326.644z M364.813,239.357
		c-15.894,0-31.198-6.287-42.477-17.564c-12.176-12.177-18.533-29.046-17.443-46.284c1.9-30.02,25.969-54.087,55.987-55.981
		c7.192-0.45,13.361,4.997,13.814,12.174c0.453,7.176-4.998,13.361-12.174,13.814c-16.964,1.07-30.567,14.672-31.64,31.637
		c-0.62,9.778,2.979,19.338,9.869,26.228c6.891,6.891,16.464,10.487,26.226,9.87c7.176-0.471,13.362,4.997,13.815,12.173
		c0.453,7.178-4.997,13.362-12.173,13.815C367.347,239.317,366.079,239.357,364.813,239.357z"/>
</g>
</svg>