<?xml version="1.0" encoding="iso-8859-1"?>
<!-- Uploaded to: SVG Repo, www.svgrepo.com, Generator: SVG Repo Mixer Tools -->
<svg height="800px" width="800px" version="1.1" id="Layer_1" xmlns="http://www.w3.org/2000/svg" xmlns:xlink="http://www.w3.org/1999/xlink" 
	 viewBox="0 0 512 512" xml:space="preserve">
<path style="fill:#0795AB;" d="M429.143,512H151.664c-8.012,0-14.507-6.496-14.507-14.507V14.598c0-8.01,6.495-14.507,14.507-14.507
	h277.478c21.214,0,38.474,17.258,38.474,38.473v242.05c0,8.01-6.495,14.507-14.507,14.507s-14.507-6.496-14.507-14.507V38.564
	c0-5.217-4.245-9.46-9.461-9.46H166.171v453.884h262.971c5.217,0,9.461-4.245,9.461-9.46V361.129c0-8.01,6.495-14.507,14.507-14.507
	s14.507,6.496,14.507,14.507v112.399C467.617,494.742,450.357,512,429.143,512z"/>
<path style="fill:#00FDA2;" d="M173.105,497.404H94.432c-19.629,0-35.541-15.912-35.541-35.541V50.047
	c0-19.629,15.912-35.541,35.541-35.541h78.673V497.404z"/>
<g>
	<path style="fill:#0795AB;" d="M173.105,511.91H94.432c-27.596,0-50.047-22.452-50.047-50.047V50.047
		C44.384,22.452,66.836,0,94.432,0h78.673c8.012,0,14.507,6.496,14.507,14.507v482.897
		C187.611,505.414,181.117,511.91,173.105,511.91z M94.432,29.013c-11.598,0-21.034,9.436-21.034,21.034v411.815
		c0,11.598,9.436,21.034,21.034,21.034h64.167V29.013H94.432z"/>
	<path style="fill:#0795AB;" d="M247.088,167.317c0-0.429,0.144-1.004,0.287-1.575l26.647-87.389
		c1.575-5.015,8.022-7.449,14.612-7.449s13.037,2.436,14.612,7.449l26.789,87.389c0.144,0.572,0.287,1.146,0.287,1.575
		c0,5.301-8.166,9.168-14.327,9.168c-3.58,0-6.447-1.146-7.305-4.155l-4.871-17.907h-30.227l-4.87,17.907
		c-0.86,3.007-3.725,4.155-7.307,4.155C255.254,176.485,247.088,172.617,247.088,167.317z M299.091,137.232l-10.458-38.393
		l-10.458,38.393H299.091z"/>
	<path style="fill:#0795AB;" d="M254.251,210.516c0-4.584,4.871-6.876,9.743-6.876h29.368c14.327,0,28.652,5.157,28.652,25.501
		c0,11.604-4.584,19.196-12.177,22.491c8.739,3.294,14.756,8.595,14.756,22.922v3.007c0,22.636-12.606,30.802-28.795,30.802h-31.804
		c-6.017,0-9.743-3.152-9.743-6.732V210.516z M276.456,243.035h15.042c5.444,0,8.166-5.013,8.166-9.883
		c0-5.015-2.723-10.028-8.166-10.028h-15.042V243.035z M290.782,288.877c7.163,0,11.46-4.011,11.46-13.179v-2.292
		c0-9.741-4.298-13.179-11.46-13.179h-14.325v28.652h14.325V288.877z"/>
	<path style="fill:#0795AB;" d="M288.346,354.999c-8.166,0-12.893,4.584-12.893,14.327v37.964c0,9.743,4.728,14.327,13.036,14.327
		c11.46,0,12.177-8.739,12.606-14.327c0.429-5.299,5.301-6.732,11.031-6.732c7.736,0,11.318,2.005,11.318,10.601
		c0,19.053-15.473,29.941-35.959,29.941c-18.767,0-34.382-9.168-34.382-33.81v-37.964c0-24.641,15.616-33.809,34.382-33.809
		c20.486,0,35.959,10.314,35.959,28.508c0,8.595-3.582,10.601-11.174,10.601c-6.017,0-10.889-1.577-11.174-6.732
		C300.953,364.167,300.524,354.999,288.346,354.999z"/>
</g>
</svg>