<?xml version="1.0" encoding="iso-8859-1"?>
<!-- Uploaded to: SVG Repo, www.svgrepo.com, Generator: SVG Repo Mixer Tools -->
<svg height="800px" width="800px" version="1.1" id="Layer_1" xmlns="http://www.w3.org/2000/svg" xmlns:xlink="http://www.w3.org/1999/xlink" 
	 viewBox="0 0 512 512" xml:space="preserve">
<g>
	<path style="fill:#0795AB;" d="M185.575,232.902H46.944C21.059,232.902,0,211.843,0,185.958V47.328
		C0,21.443,21.059,0.384,46.944,0.384h138.631c25.884,0,46.944,21.059,46.944,46.944v138.631
		C232.519,211.843,211.459,232.902,185.575,232.902z M46.944,30.061c-9.522,0-17.267,7.746-17.267,17.267v138.631
		c0,9.522,7.746,17.267,17.267,17.267h138.631c9.522,0,17.267-7.746,17.267-17.267V47.328c0-9.522-7.746-17.267-17.267-17.267
		C185.575,30.061,46.944,30.061,46.944,30.061z"/>
	<path style="fill:#0795AB;" d="M116.26,175.317c-8.195,0-14.838-6.645-14.838-14.838V72.806c0-8.194,6.643-14.838,14.838-14.838
		s14.838,6.645,14.838,14.838v87.674C131.098,168.674,124.455,175.317,116.26,175.317z"/>
	<path style="fill:#0795AB;" d="M160.096,131.481H72.423c-8.195,0-14.838-6.645-14.838-14.838s6.643-14.838,14.838-14.838h87.672
		c8.195,0,14.838,6.645,14.838,14.838S168.292,131.481,160.096,131.481z"/>
</g>
<path style="fill:#00FDA2;" d="M465.056,218.064H326.425c-17.732,0-32.106-14.374-32.106-32.106V47.327
	c0-17.732,14.374-32.106,32.106-32.106h138.631c17.732,0,32.106,14.374,32.106,32.106v138.631
	C497.162,203.69,482.788,218.064,465.056,218.064z"/>
<g>
	<path style="fill:#0795AB;" d="M465.056,232.902H326.425c-25.884,0-46.944-21.059-46.944-46.944V47.328
		c0-25.884,21.059-46.944,46.944-46.944h138.631C490.94,0.384,512,21.443,512,47.328v138.631
		C512,211.843,490.94,232.902,465.056,232.902z M326.425,30.061c-9.522,0-17.267,7.746-17.267,17.267v138.631
		c0,9.522,7.746,17.267,17.267,17.267h138.631c9.522,0,17.267-7.746,17.267-17.267V47.328c0-9.522-7.746-17.267-17.267-17.267
		C465.056,30.061,326.425,30.061,326.425,30.061z"/>
	<path style="fill:#0795AB;" d="M439.577,131.481h-87.672c-8.195,0-14.838-6.645-14.838-14.838s6.643-14.838,14.838-14.838h87.672
		c8.195,0,14.838,6.645,14.838,14.838S447.772,131.481,439.577,131.481z"/>
</g>
<path style="fill:#00FDA2;" d="M185.575,496.777H46.944c-17.732,0-32.106-14.374-32.106-32.106V326.04
	c0-17.732,14.374-32.106,32.106-32.106h138.631c17.732,0,32.106,14.374,32.106,32.106v138.631
	C217.681,482.403,203.307,496.777,185.575,496.777z"/>
<g>
	<path style="fill:#0795AB;" d="M185.575,511.616H46.944C21.059,511.616,0,490.557,0,464.672V326.04
		c0-25.884,21.059-46.944,46.944-46.944h138.631c25.884,0,46.944,21.059,46.944,46.944v138.631
		C232.519,490.557,211.459,511.616,185.575,511.616z M46.944,308.775c-9.522,0-17.267,7.746-17.267,17.267v138.631
		c0,9.522,7.746,17.267,17.267,17.267h138.631c9.522,0,17.267-7.746,17.267-17.267V326.042c0-9.522-7.746-17.267-17.267-17.267
		L46.944,308.775L46.944,308.775z"/>
	<path style="fill:#0795AB;" d="M85.262,441.192c-3.799,0-7.594-1.45-10.492-4.346c-5.794-5.794-5.794-15.19,0-20.986l61.994-61.993
		c5.794-5.793,15.188-5.791,20.984,0c5.794,5.794,5.794,15.19,0,20.986l-61.994,61.993
		C92.858,439.742,89.059,441.192,85.262,441.192z"/>
	<path style="fill:#0795AB;" d="M147.257,441.192c-3.797,0-7.594-1.45-10.492-4.346L74.77,374.853
		c-5.794-5.794-5.796-15.19,0-20.986c5.794-5.793,15.19-5.793,20.984,0l61.994,61.993c5.794,5.794,5.796,15.19,0,20.986
		C154.851,439.742,151.054,441.192,147.257,441.192z"/>
	<path style="fill:#0795AB;" d="M465.056,511.616H326.425c-25.884,0-46.944-21.059-46.944-46.944V326.04
		c0-25.884,21.059-46.944,46.944-46.944h138.631c25.884,0,46.944,21.059,46.944,46.944v52.127c0,8.194-6.643,14.838-14.838,14.838
		s-14.838-6.645-14.838-14.838V326.04c0-9.522-7.746-17.267-17.267-17.267H326.425c-9.522,0-17.267,7.746-17.267,17.267v138.631
		c0,9.522,7.746,17.267,17.267,17.267h138.631c9.522,0,17.267-7.746,17.267-17.267v-16.775c0-8.194,6.643-14.838,14.838-14.838
		S512,439.703,512,447.897v16.775C512,490.557,490.94,511.616,465.056,511.616z"/>
	<path style="fill:#0795AB;" d="M439.577,383.359h-87.672c-8.195,0-14.838-6.645-14.838-14.838s6.643-14.838,14.838-14.838h87.672
		c8.195,0,14.838,6.645,14.838,14.838S447.772,383.359,439.577,383.359z"/>
	<path style="fill:#0795AB;" d="M439.577,437.028h-87.672c-8.195,0-14.838-6.645-14.838-14.838c0-8.194,6.643-14.838,14.838-14.838
		h87.672c8.195,0,14.838,6.645,14.838,14.838C454.415,430.383,447.772,437.028,439.577,437.028z"/>
</g>
</svg>