<?xml version="1.0" encoding="iso-8859-1"?>
<!-- Uploaded to: SVG Repo, www.svgrepo.com, Generator: SVG Repo Mixer Tools -->
<svg height="800px" width="800px" version="1.1" id="Layer_1" xmlns="http://www.w3.org/2000/svg" xmlns:xlink="http://www.w3.org/1999/xlink" 
	 viewBox="0 0 512 512" xml:space="preserve">
<polyline style="fill:#00FDA2;" points="153.891,474.952 18.065,490.624 33.738,354.799 "/>
<g>
	<path style="fill:#0795AB;" d="M18.065,505.36c-3.884,0-7.639-1.537-10.418-4.315c-3.18-3.181-4.734-7.639-4.218-12.107
		L19.101,353.11c0.933-8.084,8.248-13.885,16.325-12.948c8.084,0.933,13.881,8.242,12.948,16.325L34.832,473.859l117.37-13.543
		c8.078-0.928,15.392,4.864,16.326,12.948c0.934,8.084-4.864,15.394-12.948,16.326L19.755,505.262
		C19.191,505.327,18.627,505.36,18.065,505.36z"/>
	<path style="fill:#0795AB;" d="M156.024,487.554c-1.015,0-2.038-0.105-3.053-0.32c-4.877-1.033-8.901-4.463-10.694-9.114
		c-3.499-9.076-9.87-18.517-17.938-26.585c-10.841-10.841-23.599-18.261-34.997-20.353c-6.017-1.105-10.725-5.812-11.83-11.83
		c-2.094-11.399-9.512-24.156-20.353-34.998c-8.068-8.068-17.511-14.439-26.585-17.938c-4.651-1.793-8.081-5.817-9.114-10.695
		c-1.033-4.877,0.47-9.945,3.996-13.471L310.747,56.953c5.754-5.752,15.083-5.752,20.838,0c5.754,5.754,5.754,15.083,0,20.838
		L60.38,348.994c6.17,4.128,12.096,9.007,17.614,14.522c12.447,12.448,21.492,26.746,26.108,41.073
		c14.327,4.615,28.625,13.66,41.073,26.108c5.516,5.516,10.395,11.444,14.523,17.614l220.805-220.805
		c5.753-5.752,15.083-5.752,20.838,0c5.753,5.754,5.753,15.083,0,20.838L166.442,483.238
		C163.65,486.03,159.89,487.554,156.024,487.554z"/>
</g>
<path style="fill:#00FDA2;" d="M438.313,190.532l45.798-45.798c13.128-13.128,13.128-34.412,0-47.54l-72.613-72.615
	c-13.128-13.128-34.412-13.128-47.54,0L318.16,70.377L438.313,190.532z"/>
<g>
	<path style="fill:#0795AB;" d="M438.313,205.264c-3.772,0-7.541-1.438-10.418-4.316L307.741,80.795
		c-5.754-5.754-5.754-15.083,0-20.838l45.798-45.798C362.672,5.029,374.814,0,387.728,0c12.916,0,25.056,5.029,34.188,14.161
		l72.615,72.615c18.85,18.85,18.85,49.524,0,68.376l-45.798,45.798C445.855,203.826,442.085,205.264,438.313,205.264z
		 M338.996,70.377l99.317,99.317l35.38-35.38c7.361-7.362,7.362-19.341,0-26.703l-72.614-72.615
		c-3.566-3.566-8.308-5.53-13.352-5.53c-5.043,0-9.786,1.964-13.352,5.53L338.996,70.377z"/>
	<path style="fill:#0795AB;" d="M93.816,429.609c-3.77,0-7.542-1.438-10.418-4.315c-5.754-5.754-5.754-15.083,0-20.838
		l278.414-278.412c5.754-5.754,15.083-5.754,20.838,0c5.755,5.754,5.754,15.083,0,20.838L104.234,425.295
		C101.356,428.171,97.586,429.609,93.816,429.609z"/>
	<path style="fill:#0795AB;" d="M285.613,512H18.065c-8.137,0-14.734-6.596-14.734-14.734s6.596-14.734,14.734-14.734h267.548
		c8.137,0,14.734,6.596,14.734,14.734S293.75,512,285.613,512z"/>
	<path style="fill:#0795AB;" d="M409.267,512h-59.534c-8.137,0-14.734-6.596-14.734-14.734s6.596-14.734,14.734-14.734h59.534
		c8.137,0,14.734,6.596,14.734,14.734S417.404,512,409.267,512z"/>
</g>
</svg>